<mxfile host="app.diagrams.net" modified="2023-11-13T17:19:55.994Z" agent="Mozilla/5.0 (Windows NT 10.0; Win64; x64) AppleWebKit/537.36 (KHTML, like Gecko) Chrome/119.0.0.0 Safari/537.36 Edg/119.0.0.0" version="22.1.0" etag="lLO8AtKGJU2WfwqaS9YR" type="github">
  <diagram name="Страница — 1" id="1gqFBaIbG5dnIGrCDfer">
    <mxGraphModel>
      <root>
        <mxCell id="0" />
        <mxCell id="1" parent="0" />
      </root>
    </mxGraphModel>
  </diagram>
</mxfile>
